<svg xmlns="http://www.w3.org/2000/svg" id="Layer_1" data-name="Layer 1" viewBox="0 0 291.67 188.55"><path d="M196.17,118c-22.83-17.81-17.47-37.8-13.56-52.39l.07-.26c1.4-5.2,2.6-9.69,2.3-13.36a9.09,9.09,0,0,0-3-6.2,6.79,6.79,0,0,0-5.11-1.77,9.84,9.84,0,0,0-4.08,1.15c-32.57,16.56-51.57,15.63-62.92,15.08l-.38,0C105,60,98.74,59.73,95.77,62.56a5.34,5.34,0,0,0-1.64,4c0,2.18,2.51,5.16,2.79,5.48,16.14,19.41,16.8,48.53,17,59.5a35.86,35.86,0,0,0,.21,4.2,10.08,10.08,0,0,0,10,8.56,10.19,10.19,0,0,0,6.77-2.6C144.72,129,165.1,128.1,180.1,127.45c5.78-.26,10.78-.47,14.26-1.36,0,0,.38-.1.38-.1a4.49,4.49,0,0,0,1.43-7.95ZM183.36,52.23c.28,3.33-.89,7.69-2.25,12.74l-.07.26c-2.58,9.64-5.74,21.56-1.43,33.76a94.29,94.29,0,0,0-19.25-18.81c17-19.26,20.52-28.77,21.16-32.47A7.54,7.54,0,0,1,183.36,52.23Zm-9.82-5.58a8.21,8.21,0,0,1,3.45-1,5.07,5.07,0,0,1,3,.75c0,1.68-1.15,10.41-21,32.8a104.29,104.29,0,0,0-23.9-12.52A108.23,108.23,0,0,0,119,62.13C130.88,62,148.12,59.58,173.54,46.65ZM95.75,66.6a3.73,3.73,0,0,1,1.13-2.86c1.71-1.62,5.13-2,8.41-2,1.46,0,2.89.07,4.12.13h.22A104.43,104.43,0,0,1,158.39,80c-3.66,4.09-7.91,8.62-12.9,13.65a118.79,118.79,0,0,0-11.2,13q-16.6-12-33.09-31.55c-1-1.38-2-2.73-3-4C97.23,70,95.75,67.79,95.75,66.6Zm20,68.88c-.1-.54-.14-2-.18-3.94-.21-9.45-.77-32.19-11.06-51a180.86,180.86,0,0,0,29.14,26.89c-13,18-13,30.72-12.51,34.73A8.5,8.5,0,0,1,115.77,135.48Zm14.09,5.08a8.29,8.29,0,0,1-7,2c-.38-2.57-1.34-15.51,12.15-34.21q21.6,15.18,43.26,17.51C163.31,126.57,143.55,127.86,129.86,140.56Zm64.42-16.13-.28.08a31.51,31.51,0,0,1-3.74.63c-18.15,1.09-36.42-4.77-54.64-17.57a115.4,115.4,0,0,1,11-12.81c5.06-5.09,9.37-9.69,13.07-13.85a92.66,92.66,0,0,1,21.81,22.5c2.73,5.37,7,10.76,13.73,16a2.85,2.85,0,0,1,1.13,2.29A2.9,2.9,0,0,1,194.28,124.43Z" fill="#d1d5db"/></svg>